<?xml version="1.0" encoding="UTF-8"?>
<!DOCTYPE svg PUBLIC "-//W3C//DTD SVG 1.1//EN" "http://www.w3.org/Graphics/SVG/1.1/DTD/svg11.dtd">
<svg xmlns="http://www.w3.org/2000/svg" version="1.1" width="512px" height="512px" style="shape-rendering:geometricPrecision; text-rendering:geometricPrecision; image-rendering:optimizeQuality; fill-rule:evenodd; clip-rule:evenodd" xmlns:xlink="http://www.w3.org/1999/xlink">
<g><path style="opacity:1" fill="#fcd353" d="M 198.5,79.5 C 211.799,96.5777 225.466,113.411 239.5,130C 242.339,131.92 245.339,133.587 248.5,135C 336.166,135.5 423.833,135.667 511.5,135.5C 511.5,231.833 511.5,328.167 511.5,424.5C 507.015,440.484 496.681,450.651 480.5,455C 330.5,455.667 180.5,455.667 30.5,455C 14.3186,450.651 3.98523,440.484 -0.5,424.5C -0.5,311.833 -0.5,199.167 -0.5,86.5C 3.98523,70.5156 14.3186,60.3489 30.5,56C 74.8333,55.3333 119.167,55.3333 163.5,56C 178.62,58.9955 190.286,66.8288 198.5,79.5 Z"/></g>
<g><path style="opacity:0.999" fill="#feb125" d="M 198.5,79.5 C 292.501,79.3333 386.501,79.5 480.5,80C 496.681,84.3489 507.015,94.5156 511.5,110.5C 511.5,118.833 511.5,127.167 511.5,135.5C 423.833,135.667 336.166,135.5 248.5,135C 245.339,133.587 242.339,131.92 239.5,130C 225.466,113.411 211.799,96.5777 198.5,79.5 Z"/></g>
</svg>
