<?xml version="1.0" encoding="UTF-8"?>
<!DOCTYPE svg PUBLIC "-//W3C//DTD SVG 1.1//EN" "http://www.w3.org/Graphics/SVG/1.1/DTD/svg11.dtd">
<svg xmlns="http://www.w3.org/2000/svg" version="1.1" width="512px" height="512px" style="shape-rendering:geometricPrecision; text-rendering:geometricPrecision; image-rendering:optimizeQuality; fill-rule:evenodd; clip-rule:evenodd" xmlns:xlink="http://www.w3.org/1999/xlink">
<g><path style="opacity:0.998" fill="#efeeef" d="M -0.5,85.5 C -0.5,85.1667 -0.5,84.8333 -0.5,84.5C 17.5,84.5 35.5,84.5 53.5,84.5C 53.8333,85.5 54.5,86.1667 55.5,86.5C 103.327,112.58 150.994,138.913 198.5,165.5C 198.56,166.043 198.893,166.376 199.5,166.5C 200.5,139.175 200.833,111.841 200.5,84.5C 208.167,84.5 215.833,84.5 223.5,84.5C 223.5,130.833 223.5,177.167 223.5,223.5C 148.833,223.5 74.1667,223.5 -0.5,223.5C -0.5,214.5 -0.5,205.5 -0.5,196.5C 38.8347,196.667 78.1681,196.5 117.5,196C 116.956,195.283 116.289,194.783 115.5,194.5C 76.8605,173.179 38.1938,151.846 -0.5,130.5C -0.5,125.833 -0.5,121.167 -0.5,116.5C 47.0059,143.087 94.6725,169.42 142.5,195.5C 161.329,196.662 180.329,196.829 199.5,196C 198.956,195.283 198.289,194.783 197.5,194.5C 131.483,158.138 65.483,121.805 -0.5,85.5 Z"/></g>
<g><path style="opacity:0.89" fill="#3d7ac3" d="M 53.5,84.5 C 102.167,84.5 150.833,84.5 199.5,84.5C 199.5,84.8333 199.5,85.1667 199.5,85.5C 151.33,85.1678 103.33,85.5012 55.5,86.5C 54.5,86.1667 53.8333,85.5 53.5,84.5 Z"/></g>
<g><path style="opacity:0.999" fill="#eeeeef" d="M 287.5,84.5 C 295.5,84.5 303.5,84.5 311.5,84.5C 311.5,84.8333 311.5,85.1667 311.5,85.5C 311.333,117.502 311.5,149.502 312,181.5C 369.113,149.694 426.28,118.028 483.5,86.5C 484.5,86.1667 485.167,85.5 485.5,84.5C 493.833,84.5 502.167,84.5 510.5,84.5C 445.353,121.912 379.686,158.578 313.5,194.5C 312.711,194.783 312.044,195.283 311.5,196C 330.671,196.829 349.671,196.662 368.5,195.5C 416.327,169.42 463.994,143.087 511.5,116.5C 511.5,126.5 511.5,136.5 511.5,146.5C 481.394,162.722 451.394,179.222 421.5,196C 451.498,196.5 481.498,196.667 511.5,196.5C 511.5,205.5 511.5,214.5 511.5,223.5C 436.833,223.5 362.167,223.5 287.5,223.5C 287.5,177.167 287.5,130.833 287.5,84.5 Z"/></g>
<g><path style="opacity:0.89" fill="#3d7ac3" d="M 311.5,85.5 C 311.5,85.1667 311.5,84.8333 311.5,84.5C 369.5,84.5 427.5,84.5 485.5,84.5C 485.167,85.5 484.5,86.1667 483.5,86.5C 426.336,85.501 369.002,85.1676 311.5,85.5 Z"/></g>
<g><path style="opacity:1" fill="#d70428" d="M -0.5,85.5 C 65.483,121.805 131.483,158.138 197.5,194.5C 179.341,195.497 161.008,195.83 142.5,195.5C 94.6725,169.42 47.0059,143.087 -0.5,116.5C -0.5,106.167 -0.5,95.8333 -0.5,85.5 Z"/></g>
<g><path style="opacity:1" fill="#0152b4" d="M 55.5,86.5 C 103.33,85.5012 151.33,85.1678 199.5,85.5C 199.831,112.339 199.498,139.005 198.5,165.5C 150.994,138.913 103.327,112.58 55.5,86.5 Z"/></g>
<g><path style="opacity:1" fill="#9bb8db" d="M 199.5,84.5 C 199.833,84.5 200.167,84.5 200.5,84.5C 200.833,111.841 200.5,139.175 199.5,166.5C 198.893,166.376 198.56,166.043 198.5,165.5C 199.498,139.005 199.831,112.339 199.5,85.5C 199.5,85.1667 199.5,84.8333 199.5,84.5 Z"/></g>
<g><path style="opacity:1" fill="#d80027" d="M 223.5,84.5 C 244.833,84.5 266.167,84.5 287.5,84.5C 287.5,130.833 287.5,177.167 287.5,223.5C 362.167,223.5 436.833,223.5 511.5,223.5C 511.5,244.833 511.5,266.167 511.5,287.5C 436.833,287.5 362.167,287.5 287.5,287.5C 287.5,333.833 287.5,380.167 287.5,426.5C 266.167,426.5 244.833,426.5 223.5,426.5C 223.5,380.167 223.5,333.833 223.5,287.5C 148.833,287.5 74.1667,287.5 -0.5,287.5C -0.5,266.167 -0.5,244.833 -0.5,223.5C 74.1667,223.5 148.833,223.5 223.5,223.5C 223.5,177.167 223.5,130.833 223.5,84.5 Z"/></g>
<g><path style="opacity:1" fill="#0152b4" d="M 311.5,85.5 C 369.002,85.1676 426.336,85.501 483.5,86.5C 426.28,118.028 369.113,149.694 312,181.5C 311.5,149.502 311.333,117.502 311.5,85.5 Z"/></g>
<g><path style="opacity:1" fill="#d80528" d="M 510.5,84.5 C 510.833,84.5 511.167,84.5 511.5,84.5C 511.5,95.1667 511.5,105.833 511.5,116.5C 463.994,143.087 416.327,169.42 368.5,195.5C 349.992,195.83 331.659,195.497 313.5,194.5C 379.686,158.578 445.353,121.912 510.5,84.5 Z"/></g>
<g><path style="opacity:1" fill="#0252b4" d="M -0.5,130.5 C 38.1938,151.846 76.8605,173.179 115.5,194.5C 77.0036,195.499 38.3369,195.832 -0.5,195.5C -0.5,173.833 -0.5,152.167 -0.5,130.5 Z"/></g>
<g><path style="opacity:1" fill="#0b54b5" d="M 511.5,146.5 C 511.5,163.167 511.5,179.833 511.5,196.5C 481.498,196.667 451.498,196.5 421.5,196C 451.394,179.222 481.394,162.722 511.5,146.5 Z"/></g>
<g><path style="opacity:1" fill="#6191cc" d="M 115.5,194.5 C 116.289,194.783 116.956,195.283 117.5,196C 78.1681,196.5 38.8347,196.667 -0.5,196.5C -0.5,196.167 -0.5,195.833 -0.5,195.5C 38.3369,195.832 77.0036,195.499 115.5,194.5 Z"/></g>
<g><path style="opacity:1" fill="#ca5272" d="M 197.5,194.5 C 198.289,194.783 198.956,195.283 199.5,196C 180.329,196.829 161.329,196.662 142.5,195.5C 161.008,195.83 179.341,195.497 197.5,194.5 Z"/></g>
<g><path style="opacity:1" fill="#e26278" d="M 313.5,194.5 C 331.659,195.497 349.992,195.83 368.5,195.5C 349.671,196.662 330.671,196.829 311.5,196C 312.044,195.283 312.711,194.783 313.5,194.5 Z"/></g>
<g><path style="opacity:0.999" fill="#eeeeef" d="M -0.5,287.5 C 74.1667,287.5 148.833,287.5 223.5,287.5C 223.5,333.833 223.5,380.167 223.5,426.5C 215.5,426.5 207.5,426.5 199.5,426.5C 199.5,426.167 199.5,425.833 199.5,425.5C 199.667,393.498 199.5,361.498 199,329.5C 141.887,361.306 84.72,392.972 27.5,424.5C 26.5,424.833 25.8333,425.5 25.5,426.5C 17.1667,426.5 8.83333,426.5 0.5,426.5C 65.6473,389.088 131.314,352.422 197.5,316.5C 198.289,316.217 198.956,315.717 199.5,315C 180.329,314.171 161.329,314.338 142.5,315.5C 94.6725,341.58 47.0059,367.913 -0.5,394.5C -0.5,384.5 -0.5,374.5 -0.5,364.5C 28.8333,348.5 58.1667,332.5 87.5,316.5C 88.2891,316.217 88.9558,315.717 89.5,315C 59.5019,314.5 29.5019,314.333 -0.5,314.5C -0.5,305.5 -0.5,296.5 -0.5,287.5 Z"/></g>
<g><path style="opacity:0.998" fill="#efeeef" d="M 511.5,287.5 C 511.5,296.5 511.5,305.5 511.5,314.5C 472.165,314.333 432.832,314.5 393.5,315C 394.527,315.513 395.527,316.013 396.5,316.5C 434.833,337.833 473.167,359.167 511.5,380.5C 511.5,385.167 511.5,389.833 511.5,394.5C 463.994,367.913 416.327,341.58 368.5,315.5C 349.671,314.338 330.671,314.171 311.5,315C 312.044,315.717 312.711,316.217 313.5,316.5C 379.517,352.862 445.517,389.195 511.5,425.5C 511.5,425.833 511.5,426.167 511.5,426.5C 493.5,426.5 475.5,426.5 457.5,426.5C 457.167,425.5 456.5,424.833 455.5,424.5C 407.994,397.913 360.327,371.58 312.5,345.5C 312.44,344.957 312.107,344.624 311.5,344.5C 310.5,371.825 310.167,399.159 310.5,426.5C 302.833,426.5 295.167,426.5 287.5,426.5C 287.5,380.167 287.5,333.833 287.5,287.5C 362.167,287.5 436.833,287.5 511.5,287.5 Z"/></g>
<g><path style="opacity:1" fill="#5187c8" d="M -0.5,315.5 C -0.5,315.167 -0.5,314.833 -0.5,314.5C 29.5019,314.333 59.5019,314.5 89.5,315C 88.9558,315.717 88.2891,316.217 87.5,316.5C 58.3381,315.502 29.0047,315.169 -0.5,315.5 Z"/></g>
<g><path style="opacity:1" fill="#e0526b" d="M 142.5,315.5 C 161.329,314.338 180.329,314.171 199.5,315C 198.956,315.717 198.289,316.217 197.5,316.5C 179.341,315.503 161.008,315.17 142.5,315.5 Z"/></g>
<g><path style="opacity:1" fill="#cd4667" d="M 368.5,315.5 C 349.992,315.17 331.659,315.503 313.5,316.5C 312.711,316.217 312.044,315.717 311.5,315C 330.671,314.171 349.671,314.338 368.5,315.5 Z"/></g>
<g><path style="opacity:1" fill="#5087c8" d="M 511.5,314.5 C 511.5,314.833 511.5,315.167 511.5,315.5C 472.996,315.168 434.663,315.501 396.5,316.5C 395.527,316.013 394.527,315.513 393.5,315C 432.832,314.5 472.165,314.333 511.5,314.5 Z"/></g>
<g><path style="opacity:1" fill="#0252b4" d="M -0.5,315.5 C 29.0047,315.169 58.3381,315.502 87.5,316.5C 58.1667,332.5 28.8333,348.5 -0.5,364.5C -0.5,348.167 -0.5,331.833 -0.5,315.5 Z"/></g>
<g><path style="opacity:1" fill="#d80528" d="M 142.5,315.5 C 161.008,315.17 179.341,315.503 197.5,316.5C 131.314,352.422 65.6473,389.088 0.5,426.5C 0.166667,426.5 -0.166667,426.5 -0.5,426.5C -0.5,415.833 -0.5,405.167 -0.5,394.5C 47.0059,367.913 94.6725,341.58 142.5,315.5 Z"/></g>
<g><path style="opacity:1" fill="#d70528" d="M 313.5,316.5 C 331.659,315.503 349.992,315.17 368.5,315.5C 416.327,341.58 463.994,367.913 511.5,394.5C 511.5,404.833 511.5,415.167 511.5,425.5C 445.517,389.195 379.517,352.862 313.5,316.5 Z"/></g>
<g><path style="opacity:1" fill="#0252b4" d="M 396.5,316.5 C 434.663,315.501 472.996,315.168 511.5,315.5C 511.5,337.167 511.5,358.833 511.5,380.5C 473.167,359.167 434.833,337.833 396.5,316.5 Z"/></g>
<g><path style="opacity:1" fill="#0152b4" d="M 199.5,425.5 C 141.998,425.832 84.6642,425.499 27.5,424.5C 84.72,392.972 141.887,361.306 199,329.5C 199.5,361.498 199.667,393.498 199.5,425.5 Z"/></g>
<g><path style="opacity:1" fill="#9bb8da" d="M 312.5,345.5 C 311.502,371.995 311.169,398.661 311.5,425.5C 311.5,425.833 311.5,426.167 311.5,426.5C 311.167,426.5 310.833,426.5 310.5,426.5C 310.167,399.159 310.5,371.825 311.5,344.5C 312.107,344.624 312.44,344.957 312.5,345.5 Z"/></g>
<g><path style="opacity:1" fill="#0252b4" d="M 312.5,345.5 C 360.327,371.58 407.994,397.913 455.5,424.5C 407.67,425.499 359.67,425.832 311.5,425.5C 311.169,398.661 311.502,371.995 312.5,345.5 Z"/></g>
<g><path style="opacity:0.89" fill="#3d7ac3" d="M 27.5,424.5 C 84.6642,425.499 141.998,425.832 199.5,425.5C 199.5,425.833 199.5,426.167 199.5,426.5C 141.5,426.5 83.5,426.5 25.5,426.5C 25.8333,425.5 26.5,424.833 27.5,424.5 Z"/></g>
<g><path style="opacity:0.89" fill="#3d7ac3" d="M 455.5,424.5 C 456.5,424.833 457.167,425.5 457.5,426.5C 408.833,426.5 360.167,426.5 311.5,426.5C 311.5,426.167 311.5,425.833 311.5,425.5C 359.67,425.832 407.67,425.499 455.5,424.5 Z"/></g>
</svg>
